Coordinates
version=1
nRows=19
nColumns=36
inDegrees=yes

Units are S.I. units (second, meters, Newtons, ...)
If the header above contains a line with 'inDegrees', this indicates whether rotational values are in degrees (yes) or radians (no).

endheader
time	pelvis_tilt	pelvis_list	pelvis_rotation	pelvis_tx	pelvis_ty	pelvis_tz	hip_flexion_r	hip_adduction_r	hip_rotation_r	knee_angle_r	knee_angle_r_beta	ankle_angle_r	subtalar_angle_r	mtp_angle_r	hip_flexion_l	hip_adduction_l	hip_rotation_l	knee_angle_l	knee_angle_l_beta	ankle_angle_l	subtalar_angle_l	mtp_angle_l	lumbar_extension	lumbar_bending	lumbar_rotation	arm_flex_r	arm_add_r	arm_rot_r	elbow_flex_r	pro_sup_r	arm_flex_l	arm_add_l	arm_rot_l	elbow_flex_l	pro_sup_l
      2.50000000	     -2.73126395	      7.64577467	     -6.62999624	      0.84540689	      1.07817235	     -0.04797848	     10.59389493	     -7.63062773	     -3.06739558	      0.75512091	      0.01317935	    -27.54075017	     -1.90545948	     -7.49999987	     10.86580862	     -2.88969051	     -5.94510095	      1.23328948	      0.02152496	    -32.94637434	     -6.77911213	     -7.49999987	     -4.29389675	     -1.56255594	     -2.31089234	    -54.64754744	    -26.85383047	     97.43558416	     37.64596250	     39.37438067	    -53.94068552	    -25.15264226	    107.10953480	     25.11129185	     37.80295868
      2.51666670	     -3.49428066	      7.55708547	     -5.89172759	      0.84177149	      1.11434861	     -0.04658736	     11.31140513	     -7.27750603	     -4.54600047	      0.39784792	      0.00694376	    -31.42412408	     -3.05428063	     -7.49999987	     11.87939488	     -2.59447603	     -6.88488770	      0.85340226	      0.01489468	    -35.67174764	     -7.29180334	     -7.49999987	     -2.07090629	     -1.26650186	     -4.54660724	    -53.18965052	    -25.20304068	    106.11927220	     38.16810137	     28.98282644	    -59.10891386	    -20.47501439	     87.09127481	     19.08387773	     52.68606392
      2.53333330	     -3.76132945	      7.08702805	     -5.45973626	      0.83759759	      1.15671046	     -0.04185212	     11.31720283	     -6.44414641	     -5.91557768	      0.39978450	      0.00697756	    -34.71725117	     -3.82298764	     -7.49999987	     12.23723182	     -2.77118121	     -6.68147323	      1.12106973	      0.01956636	    -36.08098507	     -5.61097730	     -7.49999987	     -1.40809854	      0.04959705	     -5.73674972	    -51.72078278	    -23.20507021	    103.42588134	     35.30187576	     31.57897210	    -57.02359867	    -17.51623282	     83.08720840	     18.21616400	     52.68601134
      2.55000000	     -3.51508331	      6.59010901	     -4.94503001	      0.83221404	      1.19258983	     -0.03814356	     10.87897820	     -5.60719353	     -6.62619035	      0.48585538	      0.00847978	    -36.59717433	     -3.95858171	     -7.49999987	     12.34557929	     -3.03095732	     -6.03656566	      1.56743673	      0.02735693	    -35.13051237	     -2.90439222	     -7.49999987	     -2.31808901	      1.24073845	     -7.54500109	    -47.16226113	    -22.70981210	    100.92871676	     34.46096026	     32.18635185	    -53.21618840	    -15.32493280	     76.26950025	     19.04027570	     51.61670935
      2.56666670	     -3.29051397	      6.38076288	     -4.56277641	      0.82913720	      1.20831920	     -0.03630219	     10.70728714	     -5.10576821	     -6.87221253	      0.63109706	      0.01101472	    -37.80495175	     -4.70562604	     -7.49999987	     12.69007847	     -3.12556197	     -5.45350118	      1.95320760	      0.03408990	    -33.60736543	     -0.99070218	     -7.49999987	     -3.48900753	      1.53089803	     -7.45038399	    -42.09138079	    -22.16277647	    102.53621007	     37.43150289	     27.32586855	    -49.87472079	    -15.10553193	     73.02834999	     22.17369669	     50.07466334
      2.58333330	     -2.90841132	      6.10174027	     -4.08416570	      0.82512419	      1.22601813	     -0.03682437	     10.59334643	     -4.73119686	     -6.83297341	      1.01032345	      0.01763347	    -37.22348746	     -5.47912779	     -7.49999987	     12.94090889	     -3.28312533	     -5.29351911	      1.82053701	      0.03177436	    -31.63908820	      0.55326796	     -7.49999987	     -4.73741194	      1.66670977	     -5.72779370	    -38.02132987	    -21.82498949	    101.58057501	     41.46648681	     27.46319867	    -44.53086358	    -16.26252206	     71.60654486	     24.83510587	     50.09094930
      2.60000000	     -2.78954188	      5.89921192	     -3.66717463	      0.81930335	      1.24142278	     -0.03942400	     11.09477724	     -4.62155876	     -6.57753401	      1.81206868	      0.03162656	    -34.28782943	     -6.06559606	     -7.49999987	     13.59193283	     -3.36422473	     -5.21197241	      1.58182202	      0.02760800	    -28.28547140	      1.29065015	     -7.49999987	     -5.93428366	      1.76153349	     -5.24777225	    -32.78826840	    -23.51071887	    103.77033865	     47.96979348	     28.41548144	    -40.54833670	    -16.87615634	     66.61901502	     30.51421415	     53.84105844
      2.61666670	     -2.62802338	      5.70372040	     -3.42169159	      0.81283028	      1.25221374	     -0.03931279	     11.71338159	     -4.64698086	     -5.91225811	      2.35378424	      0.04108128	    -30.39993015	     -6.06851694	     -7.49999987	     14.15751080	     -3.55691216	     -5.43378661	      1.24839396	      0.02178858	    -24.60461035	      1.90140476	     -7.49999987	     -6.82032226	      2.00643896	     -4.88871015	    -28.69608945	    -24.22806245	    102.08686097	     50.50011871	     32.66425655	    -35.65876983	    -17.54600023	     65.21003359	     36.54703410	     55.84812777
      2.63333330	     -2.63712668	      5.53382947	     -3.48899628	      0.80785366	      1.26169849	     -0.03966978	     12.64582208	     -4.58670359	     -4.99607159	      2.81392075	      0.04911218	    -26.34941483	     -6.06844701	     -7.49999987	     14.65836793	     -3.84989171	     -5.97143648	      1.08468713	      0.01893136	    -20.82257883	      2.50753603	     -7.49999987	     -7.35781985	      2.36905168	     -5.01390649	    -26.06705930	    -23.80529430	    101.93018758	     51.09624563	     32.66661203	    -31.41285166	    -17.14665131	     64.48775796	     41.95097876	     56.85106529
      2.65000000	     -2.60817636	      5.41523770	     -3.68132532	      0.80032926	      1.26987023	     -0.03791568	     13.54860821	     -4.49704418	     -4.24803586	      3.18433952	      0.05557721	    -23.41686945	     -5.87205715	     -7.49999987	     15.19164957	     -4.24785561	     -6.27871666	      1.11496474	      0.01945981	    -18.03418417	      2.36106951	     -7.49999987	     -8.05795824	      2.82700510	     -4.64236199	    -26.14404792	    -21.49863238	     99.77680317	     48.37574077	     33.10269445	    -26.70047560	    -16.68106533	     63.01482254	     46.87731128	     64.63972152
      2.66666670	     -2.54100890	      5.35386428	     -4.10655059	      0.79536950	      1.27222670	     -0.03496247	     14.56654372	     -4.33133284	     -3.52413646	      3.84842288	      0.06716765	    -21.13516112	     -5.64962158	     -7.49999987	     15.58551124	     -4.75731693	     -6.73859889	      1.34594413	      0.02349116	    -15.80087481	      2.22971700	     -7.49999987	     -8.78160248	      2.63469646	     -4.74740007	    -24.12888616	    -21.07653839	    101.94910164	     49.66768724	     33.08955642	    -23.95124804	    -16.04938239	     59.72107269	     51.64612932	     72.02290028
      2.68333330	     -2.55422034	      5.41085390	     -4.52094608	      0.79368116	      1.26761447	     -0.03544592	     15.65061834	     -4.33668105	     -3.02432539	      4.53232561	      0.07910400	    -19.64587184	     -5.85874277	     -7.49999987	     15.89226354	     -5.08734486	     -7.17984487	      1.75985986	      0.03071535	    -14.34134014	      1.63512479	     -7.49999987	     -9.40054217	      2.46209400	     -4.17559274	    -24.39750281	    -19.95394794	    102.44108774	     49.79888138	     35.83933023	    -20.86322032	    -15.76633651	     59.64267699	     55.27821798	     72.03147253
      2.70000000	     -2.55411439	      5.46151139	     -4.68703450	      0.79297656	      1.26030813	     -0.03420302	     16.41624988	     -4.39533361	     -2.27521777	      5.23075943	      0.09129397	    -18.30682825	     -5.42863149	     -7.49999987	     16.11824818	     -5.44807862	     -7.45275540	      2.53393055	      0.04422543	    -13.75302239	      0.40595308	     -7.49999987	     -9.77954748	      1.98711914	     -3.82532887	    -22.54455812	    -20.61410134	    102.13748599	     52.10344924	     37.00745214	    -18.97927226	    -15.86640201	     60.13018288	     57.24185211	     72.37874874
      2.71666670	     -2.78297980	      5.47563825	     -4.96017474	      0.79505659	      1.25289286	     -0.03547364	     17.12840062	     -4.46434739	     -1.39990498	      6.02027268	      0.10507358	    -17.22305419	     -5.16029548	     -7.49999987	     16.38896363	     -5.81965570	     -7.52469158	      3.40211211	      0.05937806	    -13.06401339	     -0.69330138	     -7.49999987	     -9.50213241	      1.50906115	     -4.59313419	    -18.97876824	    -21.55068629	    105.58664471	     54.33463062	     38.47007584	    -19.90810251	    -14.79558415	     58.88370298	     56.38320560	     79.38648723
      2.73333330	     -2.88930115	      5.51386401	     -5.18584648	      0.79236745	      1.24207012	     -0.03678424	     17.85926985	     -4.67994426	     -0.41452944	      6.76602270	      0.11808937	    -16.46901860	     -4.90402849	     -7.49999987	     16.80010270	     -6.07927379	     -7.60597980	      4.32527600	      0.07549031	    -13.05937541	     -2.06255985	     -7.49999987	     -9.35200278	      1.19518943	     -4.27365531	    -16.87510202	    -22.26842052	    106.03374248	     56.30036824	     39.11462771	    -19.69313713	    -14.65988409	     59.49949373	     55.48890245	     80.08150478
      2.75000000	     -2.99897280	      5.57172733	     -5.20353918	      0.79627110	      1.23289994	     -0.03864759	     18.27962281	     -4.98005935	      0.28902790	      7.45439780	      0.13010379	    -16.26280889	     -4.73762597	     -7.49999987	     16.95555740	     -6.18345401	     -7.49561732	      5.14874287	      0.08986252	    -12.93360583	     -3.11399289	     -7.49999987	     -8.80756202	      1.03428139	     -4.45120334	    -14.75324624	    -22.92397254	    107.47245906	     57.58987311	     40.05074583	    -19.61936935	    -14.41425217	     60.76525358	     54.03220243	     80.95601292
      2.76666670	     -2.98172182	      5.69987606	     -5.28680062	      0.79452177	      1.22710344	     -0.03973263	     18.46086402	     -5.39046197	      0.44017115	      7.90803177	      0.13802119	    -16.19391943	     -4.58575005	     -7.49999987	     17.18431177	     -6.10129453	     -7.48314472	      6.08501938	      0.10620362	    -12.73209514	     -3.24979100	     -7.49999987	     -8.46577507	      1.02780890	     -4.89756880	    -13.26112101	    -22.72225869	    109.10621246	     56.34185676	     40.80775618	    -18.73190929	    -14.54128497	     61.87886200	     52.87963836	     82.17991240
      2.78333330	     -2.88488488	      5.76039587	     -5.20340128	      0.79541310	      1.21622155	     -0.03869510	     18.22496924	     -5.68221398	      0.61925934	      7.93640817	      0.13851645	    -16.23357083	     -4.36303771	     -7.49999987	     17.11025353	     -6.13226730	     -7.59107526	      6.61041606	      0.11537353	    -13.00009187	     -3.21124043	     -7.49999987	     -8.21027554	      0.99123042	     -5.41381026	    -10.50380243	    -24.00009974	    108.85179124	     57.55111382	     41.39763350	    -18.46150565	    -15.69719771	     62.83737331	     52.99147237	     82.77010810
      2.80000000	     -2.72321160	      5.96267981	     -5.45386445	      0.79687809	      1.18765184	     -0.03704164	     18.00994422	     -5.85675052	      1.12393165	      7.98972126	      0.13944694	    -16.30522843	     -4.78390880	     -7.49999987	     17.22843308	     -6.17738941	     -8.16971165	      7.49310416	      0.13077934	    -13.74153509	     -4.46480850	     -7.49999987	     -7.83063623	      0.66059952	     -6.58497492	     -6.16376644	    -25.15251799	    110.65132200	     59.07648278	     44.95502526	    -19.87333579	    -16.47868113	     64.36372524	     51.62761488	     83.18385595
